<?xml version="1.0" standalone="no"?>
<!DOCTYPE svg PUBLIC "-//W3C//DTD SVG 20010904//EN"
 "http://www.w3.org/TR/2001/REC-SVG-20010904/DTD/svg10.dtd">
<svg version="1.0" xmlns="http://www.w3.org/2000/svg"
 width="567.000000pt" height="218.000000pt" viewBox="0 0 567.000000 218.000000"
 preserveAspectRatio="xMidYMid meet">

<g transform="translate(0.000000,218.000000) scale(0.100000,-0.100000)"
fill="#000000" stroke="none">
<path d="M295 1891 c-4 -7 44 -102 117 -229 l123 -217 109 -60 109 -60 -94 -3
c-52 -2 -98 -7 -103 -12 -19 -19 194 -249 306 -330 119 -87 261 -136 437 -149
132 -10 122 -3 196 -143 26 -49 50 -88 55 -88 32 0 9 67 -60 176 -35 56 -40
72 -49 161 -42 404 -316 742 -720 887 -150 54 -408 95 -426 67z m220 -52 c67
-11 130 -29 225 -66 l65 -24 53 -99 c55 -104 67 -119 84 -102 7 7 -3 34 -32
86 -23 42 -39 76 -35 76 3 0 37 -21 75 -46 88 -58 206 -167 265 -247 90 -119
167 -308 181 -444 l5 -58 -21 25 c-12 14 -46 55 -76 91 -108 131 -214 219
-214 177 0 -6 46 -59 103 -117 89 -92 187 -209 187 -225 0 -3 -24 -3 -52 0
-295 29 -424 95 -631 323 l-77 86 112 5 c89 4 113 8 113 19 0 8 -63 50 -140
95 l-140 80 -105 185 c-58 102 -107 189 -108 193 -4 9 54 4 163 -13z"/>
<path d="M2281 1498 l-45 -20 27 -15 27 -14 0 -204 c0 -112 3 -206 8 -208 11
-7 112 24 112 34 0 5 -9 9 -19 9 -10 0 -22 7 -25 16 -3 9 -6 108 -6 220 0 231
4 220 -79 182z"/>
<path d="M3943 1502 c-39 -15 -57 -32 -34 -32 5 0 17 -7 25 -16 13 -13 16 -44
16 -187 0 -95 -4 -177 -8 -183 -4 -6 -15 -13 -25 -17 -37 -14 -4 -27 68 -27
77 0 104 13 61 30 -26 9 -26 11 -26 119 l0 109 35 31 c41 35 79 40 95 12 5
-11 10 -74 10 -141 0 -113 -1 -122 -20 -127 -11 -3 -20 -12 -20 -19 0 -11 19
-14 80 -14 61 0 80 3 80 14 0 7 -9 16 -20 19 -19 5 -20 14 -20 120 0 63 -5
128 -11 146 -24 68 -109 77 -174 19 l-35 -30 0 96 c0 108 1 107 -77 78z"/>
<path d="M3265 1475 c-22 -8 -41 -15 -42 -15 -11 -1 -33 -67 -33 -98 0 -51 34
-88 115 -130 74 -37 98 -63 98 -104 0 -62 -75 -88 -140 -49 -17 11 -34 29 -38
40 -4 12 -15 21 -27 21 -19 0 -20 -4 -13 -47 8 -56 10 -59 29 -44 10 9 27 8
72 -4 106 -27 194 21 194 106 0 63 -28 98 -112 143 -95 51 -108 63 -108 101 0
71 80 89 136 30 44 -47 56 -45 52 8 -3 39 -5 42 -33 43 -16 1 -48 4 -70 7 -26
5 -54 2 -80 -8z"/>
<path d="M1830 1465 c0 -3 11 -10 25 -15 l25 -10 0 -180 0 -180 -25 -12 c-53
-24 -24 -30 118 -26 159 5 207 19 232 69 25 48 19 87 -19 125 -19 19 -43 34
-53 34 -34 0 -33 12 0 34 25 17 33 30 35 60 4 44 -16 71 -65 92 -31 14 -273
21 -273 9z m233 -28 c24 -17 36 -66 25 -99 -10 -29 -61 -58 -102 -58 -26 0
-26 0 -26 85 l0 85 43 0 c24 0 51 -6 60 -13z m40 -197 c49 -39 45 -132 -7
-159 -12 -7 -46 -11 -76 -9 l-55 3 -3 87 c-3 97 -5 95 74 97 28 1 50 -6 67
-19z"/>
<path d="M2534 1381 c-23 -10 -52 -34 -65 -52 -20 -29 -24 -46 -24 -111 0 -62
4 -82 21 -105 78 -105 214 -97 272 17 76 151 -60 318 -204 251z m108 -42 c22
-29 40 -131 32 -179 -10 -61 -25 -90 -52 -97 -52 -13 -90 43 -99 145 -12 141
56 216 119 131z"/>
<path d="M2903 1389 c-74 -22 -109 -123 -63 -182 24 -30 25 -37 5 -37 -20 0
-47 -44 -39 -64 10 -25 51 -42 134 -56 108 -17 135 -40 114 -95 -15 -38 -96
-57 -144 -32 -20 10 -26 22 -30 62 -4 41 -9 51 -26 53 -11 2 -28 -6 -39 -17
-30 -34 -10 -81 45 -108 123 -63 299 19 261 120 -14 36 -55 54 -156 71 -87 14
-113 25 -100 45 4 8 28 9 68 6 50 -5 69 -3 97 13 48 26 73 75 65 130 -6 40 -5
42 19 42 28 0 38 17 24 43 -12 23 -33 22 -58 -3 -18 -18 -22 -19 -43 -6 -30
20 -95 27 -134 15z m102 -50 c28 -53 15 -138 -25 -159 -31 -17 -60 -2 -77 38
-42 102 53 216 102 121z"/>
<path d="M3558 1377 c-50 -22 -62 -37 -29 -37 10 0 22 -7 25 -16 11 -28 7
-360 -5 -393 -6 -18 -9 -34 -6 -37 7 -7 137 36 137 45 0 3 -10 11 -22 16 -19
8 -24 19 -26 59 -3 44 -1 48 15 41 64 -26 84 -27 131 -3 75 38 108 104 95 196
-15 112 -127 181 -207 128 -32 -21 -36 -20 -36 4 0 24 -11 24 -72 -3z m194
-24 c25 -30 38 -82 38 -160 0 -112 -32 -157 -94 -134 -48 19 -66 64 -66 173 0
92 1 97 26 117 33 26 76 27 96 4z"/>
<path d="M4401 1378 c-65 -35 -94 -92 -89 -175 4 -70 23 -103 78 -140 59 -41
155 -28 197 27 23 30 -5 31 -35 1 -54 -54 -130 -31 -152 47 -20 73 -22 71 98
74 l107 3 3 40 c7 106 -109 175 -207 123z m114 -32 c7 -11 15 -41 17 -66 l3
-45 -70 0 c-81 0 -88 9 -61 80 25 63 80 79 111 31z"/>
<path d="M4688 1377 c-52 -23 -59 -32 -28 -40 19 -5 20 -14 20 -131 0 -115 -2
-126 -20 -136 -38 -21 -20 -30 60 -30 61 0 80 3 80 14 0 7 -9 16 -20 19 -18 5
-20 14 -20 107 0 144 27 188 93 151 21 -12 32 -13 45 -5 42 27 16 74 -41 74
-21 0 -41 -11 -67 -38 l-37 -37 5 37 c6 45 -1 46 -70 15z"/>
<path d="M5031 1378 c-67 -34 -85 -66 -89 -151 -2 -60 1 -78 20 -111 45 -77
164 -103 227 -50 17 14 31 32 31 40 0 21 -9 17 -40 -16 -29 -31 -73 -40 -109
-20 -21 11 -51 79 -51 115 0 25 0 25 98 25 63 0 102 4 110 12 28 28 2 112 -45
146 -48 34 -100 37 -152 10z m114 -39 c8 -15 15 -46 15 -69 l0 -40 -70 0 -70
0 0 30 c0 100 87 154 125 79z"/>
<path d="M2510 740 c-9 -6 -10 -10 -3 -10 6 0 15 5 18 10 8 12 4 12 -15 0z"/>
<path d="M4470 740 c-9 -6 -10 -10 -3 -10 6 0 15 5 18 10 8 12 4 12 -15 0z"/>
<path d="M1925 730 c3 -5 8 -10 11 -10 2 0 4 5 4 10 0 6 -5 10 -11 10 -5 0 -7
-4 -4 -10z"/>
<path d="M2795 730 c3 -5 8 -10 11 -10 2 0 4 5 4 10 0 6 -5 10 -11 10 -5 0 -7
-4 -4 -10z"/>
<path d="M1175 501 c-22 -10 -58 -33 -80 -51 -84 -67 -114 -73 -332 -57 -100
7 -113 6 -113 -8 0 -22 7 -23 166 -35 170 -12 212 -3 294 65 72 59 104 69 215
63 71 -4 105 -11 150 -32 38 -17 62 -23 68 -17 18 18 -13 40 -95 66 -99 31
-213 34 -273 6z"/>
</g>
</svg>
